<svg width="30" height="30" viewBox="0 0 30 30" fill="none" xmlns="http://www.w3.org/2000/svg">
<g clip-path="url(#clip0_361_1016)">
<path d="M1.07141 26.7858V3.21439C1.07141 2.64606 1.29718 2.10103 1.69904 1.69916C2.1009 1.2973 2.64594 1.07153 3.21427 1.07153H26.7857C27.354 1.07153 27.8991 1.2973 28.3009 1.69916C28.7027 2.10103 28.9286 2.64606 28.9286 3.21439V26.7858C28.9286 27.3541 28.7027 27.8992 28.3009 28.301C27.8991 28.7028 27.354 28.9287 26.7857 28.9287H20.3571V18.7715H21.8786C22.2253 18.7715 22.5576 18.6338 22.8028 18.3887C23.0479 18.1435 23.1857 17.8111 23.1857 17.4644V15.8144C23.1857 15.6427 23.1518 15.4728 23.0863 15.3142C23.0205 15.1556 22.9243 15.0115 22.8028 14.8901C22.6815 14.7687 22.5373 14.6724 22.3787 14.6067C22.2201 14.5411 22.0502 14.5072 21.8786 14.5072H20.4428V12.493C20.4428 10.693 21.2571 10.693 22.0714 10.693H23.1214C23.2939 10.7001 23.4658 10.6692 23.625 10.6026C23.7842 10.5359 23.9269 10.4351 24.0428 10.3072C24.1673 10.1887 24.2659 10.0456 24.3323 9.88699C24.3988 9.72838 24.4316 9.55774 24.4286 9.38582V7.80011C24.4343 7.62561 24.4056 7.4517 24.3439 7.28833C24.2824 7.12493 24.1894 6.97528 24.0698 6.84791C23.9505 6.72056 23.8071 6.61796 23.6481 6.54602C23.4891 6.47408 23.3173 6.43421 23.1428 6.42868H20.6786C19.9595 6.40163 19.2432 6.53102 18.579 6.80788C17.9148 7.08471 17.3187 7.50244 16.8318 8.03218C16.3448 8.56193 15.9786 9.19106 15.7586 9.87613C15.5385 10.5612 15.4698 11.2859 15.5571 12.0001V14.5072H14.1857C14.0123 14.5044 13.84 14.5361 13.6789 14.6005C13.5178 14.6649 13.3712 14.7608 13.2475 14.8824C13.1239 15.0041 13.0257 15.1492 12.9586 15.3092C12.8916 15.4692 12.8571 15.6409 12.8571 15.8144V17.4644C12.8571 17.6379 12.8916 17.8096 12.9586 17.9696C13.0257 18.1296 13.1239 18.2747 13.2475 18.3963C13.3712 18.518 13.5178 18.6138 13.6789 18.6783C13.84 18.7427 14.0123 18.7744 14.1857 18.7715H15.5571V28.9287H3.21427C2.64594 28.9287 2.1009 28.7028 1.69904 28.301C1.29718 27.8992 1.07141 27.3541 1.07141 26.7858Z" stroke="black" stroke-linecap="round" stroke-linejoin="round"/>
</g>
<defs>
<clipPath id="clip0_361_1016">
<rect width="30" height="30" fill="white"/>
</clipPath>
</defs>
</svg>
