<svg width="33" height="33" viewBox="0 0 33 33" fill="none" xmlns="http://www.w3.org/2000/svg">
<path d="M24.3569 8.5897C24.0313 8.5897 23.7676 8.32587 23.7676 8.00042C23.7676 7.67497 24.0313 7.41113 24.3569 7.41113" stroke="black" stroke-linecap="round" stroke-linejoin="round"/>
<path d="M24.3568 8.5897C24.6823 8.5897 24.9461 8.32587 24.9461 8.00042C24.9461 7.67497 24.6823 7.41113 24.3568 7.41113" stroke="black" stroke-linecap="round" stroke-linejoin="round"/>
<path d="M2.02307 8.08839C2.02307 4.73882 4.73844 2.02344 8.08803 2.02344H24.2614C27.6109 2.02344 30.3263 4.73882 30.3263 8.08839V24.2617C30.3263 27.6112 27.6109 30.3266 24.2614 30.3266H8.08803C4.73844 30.3266 2.02307 27.6112 2.02307 24.2617V8.08839Z" stroke="black" stroke-linecap="round" stroke-linejoin="round"/>
<path d="M16.1747 22.1855C19.4943 22.1855 22.1854 19.4944 22.1854 16.1748C22.1854 12.8552 19.4943 10.1641 16.1747 10.1641C12.855 10.1641 10.1639 12.8552 10.1639 16.1748C10.1639 19.4944 12.855 22.1855 16.1747 22.1855Z" stroke="black" stroke-linecap="round" stroke-linejoin="round"/>
</svg>
