<svg width="40" height="40" viewBox="0 0 40 40" fill="none" xmlns="http://www.w3.org/2000/svg">
<path d="M29.5235 10.4117C29.1289 10.4117 28.8092 10.0919 28.8092 9.69744C28.8092 9.30295 29.1289 8.98315 29.5235 8.98315" stroke="#517970" stroke-linecap="round" stroke-linejoin="round"/>
<path d="M29.5234 10.4117C29.918 10.4117 30.2377 10.0919 30.2377 9.69744C30.2377 9.30295 29.918 8.98315 29.5234 8.98315" stroke="#517970" stroke-linecap="round" stroke-linejoin="round"/>
<path d="M2.45227 9.8041C2.45227 5.74401 5.74362 2.45264 9.80374 2.45264H29.4078C33.4678 2.45264 36.7592 5.74401 36.7592 9.8041V29.4081C36.7592 33.4681 33.4678 36.7595 29.4078 36.7595H9.80374C5.74362 36.7595 2.45227 33.4681 2.45227 29.4081V9.8041Z" stroke="#517970" stroke-linecap="round" stroke-linejoin="round"/>
<path d="M19.6058 26.8915C23.6296 26.8915 26.8915 23.6296 26.8915 19.6058C26.8915 15.582 23.6296 12.3201 19.6058 12.3201C15.582 12.3201 12.3201 15.582 12.3201 19.6058C12.3201 23.6296 15.582 26.8915 19.6058 26.8915Z" stroke="#517970" stroke-linecap="round" stroke-linejoin="round"/>
</svg>
