<svg width="35" height="35" viewBox="0 0 35 35" fill="none" xmlns="http://www.w3.org/2000/svg">
<path d="M10 23.4999C8.21487 24.9021 6.16589 25.9309 3.97502 26.5249C3.73369 26.6126 3.5252 26.7724 3.37787 26.9824C3.23052 27.1926 3.15147 27.4431 3.15147 27.6999C3.15147 27.9566 3.23052 28.2071 3.37787 28.4174C3.5252 28.6276 3.73369 28.7874 3.97502 28.8749C21.275 35.9749 32.275 24.9999 30.6 12.8249L33.4 7.02493H30.15C26.1 2.04994 15.35 2.29994 17.125 12.8999C17.125 12.8999 11.375 13.9249 4.02502 6.69993C3.85499 6.53208 3.64042 6.41645 3.40672 6.36678C3.17302 6.3171 2.92999 6.33543 2.70639 6.4196C2.48279 6.50378 2.288 6.65028 2.14508 6.84175C2.00217 7.0332 1.91712 7.26163 1.90001 7.49993C1.12284 10.6946 1.51177 14.0617 2.99677 16.995C4.48177 19.9283 6.96525 22.2351 10 23.4999Z" stroke="black" stroke-linecap="round" stroke-linejoin="round"/>
</svg>
