<svg width="40" height="40" viewBox="0 0 40 40" fill="none" xmlns="http://www.w3.org/2000/svg">
<path d="M11.4286 26.8571C9.38844 28.4596 7.04675 29.6354 4.5429 30.3142C4.2671 30.4145 4.02881 30.5971 3.86044 30.8371C3.69204 31.0774 3.6017 31.3636 3.6017 31.6571C3.6017 31.9505 3.69204 32.2368 3.86044 32.4771C4.02881 32.7174 4.2671 32.8999 4.5429 32.9999C24.3143 41.1142 36.8857 28.5714 34.9714 14.6571L38.1714 8.02856H34.4571C29.8286 2.34285 17.5429 2.62857 19.5715 14.7428C19.5715 14.7428 13 15.9143 4.60004 7.65713C4.40573 7.4653 4.1605 7.33316 3.89341 7.27639C3.62633 7.21962 3.34858 7.24056 3.09304 7.33676C2.83749 7.43296 2.61487 7.60039 2.45154 7.81922C2.28821 8.03802 2.19102 8.29908 2.17146 8.57142C1.28327 12.2224 1.72776 16.0706 3.4249 19.4229C5.12204 22.7753 7.9603 25.4116 11.4286 26.8571Z" stroke="#517970" stroke-linecap="round" stroke-linejoin="round"/>
</svg>
