<svg width="28" height="61" viewBox="0 0 28 61" fill="none" xmlns="http://www.w3.org/2000/svg">
<path d="M25.9161 8.03921H20.9714V0.3479H19.1733V8.03921H8.38482V0.3479H6.58674V8.03921H1.64202C1.28448 8.04023 0.941715 8.38784 0.688901 9.00579C0.436087 9.62374 0.293873 10.4616 0.293457 11.3355V57.4833C0.293873 58.3573 0.436087 59.1951 0.688901 59.813C0.941715 60.431 1.28448 60.7786 1.64202 60.7796H25.9161C26.2736 60.7786 26.6164 60.431 26.8692 59.813C27.122 59.1951 27.2642 58.3573 27.2647 57.4833V11.3355C27.2642 10.4616 27.122 9.62374 26.8692 9.00579C26.6164 8.38784 26.2736 8.04023 25.9161 8.03921ZM25.4666 56.3846H2.09154V12.4342H6.58674V17.928H8.38482V12.4342H19.1733V17.928H20.9714V12.4342H25.4666V56.3846Z" fill="black"/>
<path d="M7.48582 25.6194H5.68774V30.0144H7.48582V25.6194Z" fill="black"/>
<path d="M12.4305 25.6194H10.6324V30.0144H12.4305V25.6194Z" fill="black"/>
<path d="M16.9258 25.6194H15.1277V30.0144H16.9258V25.6194Z" fill="black"/>
<path d="M21.8703 25.6194H20.0723V30.0144H21.8703V25.6194Z" fill="black"/>
<path d="M7.48582 35.5081H5.68774V39.9031H7.48582V35.5081Z" fill="black"/>
<path d="M12.4305 35.5081H10.6324V39.9031H12.4305V35.5081Z" fill="black"/>
<path d="M16.9258 35.5081H15.1277V39.9031H16.9258V35.5081Z" fill="black"/>
<path d="M21.8703 35.5081H20.0723V39.9031H21.8703V35.5081Z" fill="black"/>
<path d="M7.48582 45.397H5.68774V49.792H7.48582V45.397Z" fill="black"/>
<path d="M12.4305 45.397H10.6324V49.792H12.4305V45.397Z" fill="black"/>
<path d="M16.9258 45.397H15.1277V49.792H16.9258V45.397Z" fill="black"/>
<path d="M21.8703 45.397H20.0723V49.792H21.8703V45.397Z" fill="black"/>
</svg>
