<svg width="19" height="60" viewBox="0 0 19 60" fill="none" xmlns="http://www.w3.org/2000/svg">
<path d="M9.71437 14.1814C9.06313 14.1814 8.42651 14.6534 7.88502 15.5378C7.34354 16.4222 6.9215 17.6792 6.67228 19.1498C6.42306 20.6205 6.35785 22.2387 6.4849 23.7999C6.61195 25.3612 6.92555 26.7953 7.38605 27.9209C7.84655 29.0464 8.43326 29.813 9.07199 30.1235C9.71072 30.4341 10.3728 30.2747 10.9744 29.6655C11.5761 29.0564 12.0904 28.0248 12.4522 26.7012C12.814 25.3777 13.0071 23.8216 13.0071 22.2298C13.0061 20.096 12.6589 18.0502 12.0416 16.5414C11.4243 15.0326 10.5874 14.1838 9.71437 14.1814ZM9.71437 26.254C9.38875 26.254 9.07044 26.018 8.7997 25.5758C8.52895 25.1336 8.31793 24.5051 8.19332 23.7698C8.06871 23.0345 8.03611 22.2253 8.09964 21.4447C8.16316 20.6641 8.31996 19.947 8.55021 19.3843C8.78046 18.8215 9.07382 18.4382 9.39318 18.2829C9.71254 18.1276 10.0436 18.2073 10.3444 18.5119C10.6452 18.8165 10.9024 19.3323 11.0833 19.9941C11.2642 20.6558 11.3607 21.4339 11.3607 22.2298C11.3602 23.2967 11.1866 24.3195 10.878 25.074C10.5693 25.8284 10.1509 26.2528 9.71437 26.254Z" fill="black"/>
<path d="M16.0417 6.75205C14.4772 2.92912 12.3889 0.658138 10.1798 0.377417C7.9706 0.0966963 5.7972 1.82613 4.07904 5.23194C2.36087 8.63775 1.21974 13.4785 0.875878 18.8199C0.532019 24.1613 1.00981 29.6247 2.21704 34.1557L8.43757 57.4977C8.576 58.0171 8.76527 58.4438 8.98823 58.7392C9.21119 59.0346 9.46079 59.1893 9.7144 59.1893C9.96801 59.1893 10.2176 59.0346 10.4406 58.7392C10.6635 58.4438 10.8528 58.0171 10.9912 57.4977L17.212 34.1557C18.3321 29.9526 18.8272 24.936 18.6141 19.9468C18.401 14.9576 17.4928 10.2991 16.0417 6.75205ZM15.8325 31.9591L9.71443 54.9159L3.59628 31.9591C1.72354 24.932 2.1252 15.5279 4.55132 9.59753C5.22935 7.9402 6.03428 6.62554 6.92017 5.72859C7.80605 4.83165 8.75555 4.37 9.71443 4.37C10.6733 4.37 11.6228 4.83165 12.5087 5.72859C13.3946 6.62554 14.1995 7.9402 14.8775 9.59753C17.3036 15.5279 17.7053 24.932 15.8325 31.9591Z" fill="black"/>
</svg>
